# xmcd
#
# Track frame offsets:
#	150
#	11351
#	26130
#	37385
#	49667
#	60572
#	70766
#	85378
#	97255
#	106571
#	122402
#
# Disc length: 1805 seconds
#
# Revision: 1
# Processed by: cddbd v1.5.1PL0 Copyright (c) Steve Scherf et al.
# Submitted via: audiograbber 1.83.01
#
DISCID=8c070b0b
DTITLE=Nick Shannon - Destiny Rides Again
DYEAR=2001
DGENRE=Country
TTITLE0=Roll On Big River
TTITLE1=The Cowboy Rides Away
TTITLE2=Tearin´ Up My Ticket To Tulsa
TTITLE3=Amarillo By Morning
TTITLE4=Tall Tall Trees
TTITLE5=Golden Rocket
TTITLE6=Cool Water
TTITLE7=Battle Of New Orleans ( duet with Joe Sun)
TTITLE8=Chug-A-Lug
TTITLE9=Write This Down
TTITLE10=I´ve Been Everywhere
EXTD="Singing the songs of"\nA Joe Sun production
EXTT0=Joe Sun
EXTT1=Sonny Throckmorton - Casey Kelly
EXTT2=Joe Sun - Roger Brown
EXTT3=Terry Stafford - P. Fraser
EXTT4=George Jones - Roger Miller
EXTT5=Johnny Horton
EXTT6=Bob Nolan
EXTT7=Jimmy Driftwood
EXTT8=Roger Miller
EXTT9=Dana Hunt - Kent M. Robbons
EXTT10=Geoff Mack - Hank Snow - Johnny Cash
PLAYORDER=
